%TF.GenerationSoftware,KiCad,Pcbnew,10.0.2*%
%TF.CreationDate,2026-06-01T21:40:57-04:00*%
%TF.ProjectId,BlinkyBoard,426c696e-6b79-4426-9f61-72642e6b6963,rev?*%
%TF.SameCoordinates,Original*%
%TF.FileFunction,Legend,Top*%
%TF.FilePolarity,Positive*%
%FSLAX46Y46*%
G04 Gerber Fmt 4.6, Leading zero omitted, Abs format (unit mm)*
G04 Created by KiCad (PCBNEW 10.0.2) date 2026-06-01 21:40:57*
%MOMM*%
%LPD*%
G01*
G04 APERTURE LIST*
%ADD10C,0.150000*%
%ADD11C,0.120000*%
%ADD12C,0.152400*%
G04 APERTURE END LIST*
D10*
X111783905Y-148243819D02*
X111783905Y-147243819D01*
X111783905Y-147243819D02*
X112022000Y-147243819D01*
X112022000Y-147243819D02*
X112164857Y-147291438D01*
X112164857Y-147291438D02*
X112260095Y-147386676D01*
X112260095Y-147386676D02*
X112307714Y-147481914D01*
X112307714Y-147481914D02*
X112355333Y-147672390D01*
X112355333Y-147672390D02*
X112355333Y-147815247D01*
X112355333Y-147815247D02*
X112307714Y-148005723D01*
X112307714Y-148005723D02*
X112260095Y-148100961D01*
X112260095Y-148100961D02*
X112164857Y-148196200D01*
X112164857Y-148196200D02*
X112022000Y-148243819D01*
X112022000Y-148243819D02*
X111783905Y-148243819D01*
X112926762Y-147672390D02*
X112831524Y-147624771D01*
X112831524Y-147624771D02*
X112783905Y-147577152D01*
X112783905Y-147577152D02*
X112736286Y-147481914D01*
X112736286Y-147481914D02*
X112736286Y-147434295D01*
X112736286Y-147434295D02*
X112783905Y-147339057D01*
X112783905Y-147339057D02*
X112831524Y-147291438D01*
X112831524Y-147291438D02*
X112926762Y-147243819D01*
X112926762Y-147243819D02*
X113117238Y-147243819D01*
X113117238Y-147243819D02*
X113212476Y-147291438D01*
X113212476Y-147291438D02*
X113260095Y-147339057D01*
X113260095Y-147339057D02*
X113307714Y-147434295D01*
X113307714Y-147434295D02*
X113307714Y-147481914D01*
X113307714Y-147481914D02*
X113260095Y-147577152D01*
X113260095Y-147577152D02*
X113212476Y-147624771D01*
X113212476Y-147624771D02*
X113117238Y-147672390D01*
X113117238Y-147672390D02*
X112926762Y-147672390D01*
X112926762Y-147672390D02*
X112831524Y-147720009D01*
X112831524Y-147720009D02*
X112783905Y-147767628D01*
X112783905Y-147767628D02*
X112736286Y-147862866D01*
X112736286Y-147862866D02*
X112736286Y-148053342D01*
X112736286Y-148053342D02*
X112783905Y-148148580D01*
X112783905Y-148148580D02*
X112831524Y-148196200D01*
X112831524Y-148196200D02*
X112926762Y-148243819D01*
X112926762Y-148243819D02*
X113117238Y-148243819D01*
X113117238Y-148243819D02*
X113212476Y-148196200D01*
X113212476Y-148196200D02*
X113260095Y-148148580D01*
X113260095Y-148148580D02*
X113307714Y-148053342D01*
X113307714Y-148053342D02*
X113307714Y-147862866D01*
X113307714Y-147862866D02*
X113260095Y-147767628D01*
X113260095Y-147767628D02*
X113212476Y-147720009D01*
X113212476Y-147720009D02*
X113117238Y-147672390D01*
X119911905Y-90204819D02*
X119911905Y-89204819D01*
X119911905Y-89204819D02*
X120150000Y-89204819D01*
X120150000Y-89204819D02*
X120292857Y-89252438D01*
X120292857Y-89252438D02*
X120388095Y-89347676D01*
X120388095Y-89347676D02*
X120435714Y-89442914D01*
X120435714Y-89442914D02*
X120483333Y-89633390D01*
X120483333Y-89633390D02*
X120483333Y-89776247D01*
X120483333Y-89776247D02*
X120435714Y-89966723D01*
X120435714Y-89966723D02*
X120388095Y-90061961D01*
X120388095Y-90061961D02*
X120292857Y-90157200D01*
X120292857Y-90157200D02*
X120150000Y-90204819D01*
X120150000Y-90204819D02*
X119911905Y-90204819D01*
X121340476Y-89204819D02*
X121150000Y-89204819D01*
X121150000Y-89204819D02*
X121054762Y-89252438D01*
X121054762Y-89252438D02*
X121007143Y-89300057D01*
X121007143Y-89300057D02*
X120911905Y-89442914D01*
X120911905Y-89442914D02*
X120864286Y-89633390D01*
X120864286Y-89633390D02*
X120864286Y-90014342D01*
X120864286Y-90014342D02*
X120911905Y-90109580D01*
X120911905Y-90109580D02*
X120959524Y-90157200D01*
X120959524Y-90157200D02*
X121054762Y-90204819D01*
X121054762Y-90204819D02*
X121245238Y-90204819D01*
X121245238Y-90204819D02*
X121340476Y-90157200D01*
X121340476Y-90157200D02*
X121388095Y-90109580D01*
X121388095Y-90109580D02*
X121435714Y-90014342D01*
X121435714Y-90014342D02*
X121435714Y-89776247D01*
X121435714Y-89776247D02*
X121388095Y-89681009D01*
X121388095Y-89681009D02*
X121340476Y-89633390D01*
X121340476Y-89633390D02*
X121245238Y-89585771D01*
X121245238Y-89585771D02*
X121054762Y-89585771D01*
X121054762Y-89585771D02*
X120959524Y-89633390D01*
X120959524Y-89633390D02*
X120911905Y-89681009D01*
X120911905Y-89681009D02*
X120864286Y-89776247D01*
X144573666Y-115946819D02*
X144573666Y-116661104D01*
X144573666Y-116661104D02*
X144526047Y-116803961D01*
X144526047Y-116803961D02*
X144430809Y-116899200D01*
X144430809Y-116899200D02*
X144287952Y-116946819D01*
X144287952Y-116946819D02*
X144192714Y-116946819D01*
X145002238Y-116042057D02*
X145049857Y-115994438D01*
X145049857Y-115994438D02*
X145145095Y-115946819D01*
X145145095Y-115946819D02*
X145383190Y-115946819D01*
X145383190Y-115946819D02*
X145478428Y-115994438D01*
X145478428Y-115994438D02*
X145526047Y-116042057D01*
X145526047Y-116042057D02*
X145573666Y-116137295D01*
X145573666Y-116137295D02*
X145573666Y-116232533D01*
X145573666Y-116232533D02*
X145526047Y-116375390D01*
X145526047Y-116375390D02*
X144954619Y-116946819D01*
X144954619Y-116946819D02*
X145573666Y-116946819D01*
X96067714Y-111159819D02*
X96067714Y-110159819D01*
X96067714Y-110159819D02*
X96305809Y-110159819D01*
X96305809Y-110159819D02*
X96448666Y-110207438D01*
X96448666Y-110207438D02*
X96543904Y-110302676D01*
X96543904Y-110302676D02*
X96591523Y-110397914D01*
X96591523Y-110397914D02*
X96639142Y-110588390D01*
X96639142Y-110588390D02*
X96639142Y-110731247D01*
X96639142Y-110731247D02*
X96591523Y-110921723D01*
X96591523Y-110921723D02*
X96543904Y-111016961D01*
X96543904Y-111016961D02*
X96448666Y-111112200D01*
X96448666Y-111112200D02*
X96305809Y-111159819D01*
X96305809Y-111159819D02*
X96067714Y-111159819D01*
X97591523Y-111159819D02*
X97020095Y-111159819D01*
X97305809Y-111159819D02*
X97305809Y-110159819D01*
X97305809Y-110159819D02*
X97210571Y-110302676D01*
X97210571Y-110302676D02*
X97115333Y-110397914D01*
X97115333Y-110397914D02*
X97020095Y-110445533D01*
X98543904Y-111159819D02*
X97972476Y-111159819D01*
X98258190Y-111159819D02*
X98258190Y-110159819D01*
X98258190Y-110159819D02*
X98162952Y-110302676D01*
X98162952Y-110302676D02*
X98067714Y-110397914D01*
X98067714Y-110397914D02*
X97972476Y-110445533D01*
X77699905Y-122063819D02*
X77699905Y-121063819D01*
X77699905Y-121063819D02*
X77938000Y-121063819D01*
X77938000Y-121063819D02*
X78080857Y-121111438D01*
X78080857Y-121111438D02*
X78176095Y-121206676D01*
X78176095Y-121206676D02*
X78223714Y-121301914D01*
X78223714Y-121301914D02*
X78271333Y-121492390D01*
X78271333Y-121492390D02*
X78271333Y-121635247D01*
X78271333Y-121635247D02*
X78223714Y-121825723D01*
X78223714Y-121825723D02*
X78176095Y-121920961D01*
X78176095Y-121920961D02*
X78080857Y-122016200D01*
X78080857Y-122016200D02*
X77938000Y-122063819D01*
X77938000Y-122063819D02*
X77699905Y-122063819D01*
X78747524Y-122063819D02*
X78938000Y-122063819D01*
X78938000Y-122063819D02*
X79033238Y-122016200D01*
X79033238Y-122016200D02*
X79080857Y-121968580D01*
X79080857Y-121968580D02*
X79176095Y-121825723D01*
X79176095Y-121825723D02*
X79223714Y-121635247D01*
X79223714Y-121635247D02*
X79223714Y-121254295D01*
X79223714Y-121254295D02*
X79176095Y-121159057D01*
X79176095Y-121159057D02*
X79128476Y-121111438D01*
X79128476Y-121111438D02*
X79033238Y-121063819D01*
X79033238Y-121063819D02*
X78842762Y-121063819D01*
X78842762Y-121063819D02*
X78747524Y-121111438D01*
X78747524Y-121111438D02*
X78699905Y-121159057D01*
X78699905Y-121159057D02*
X78652286Y-121254295D01*
X78652286Y-121254295D02*
X78652286Y-121492390D01*
X78652286Y-121492390D02*
X78699905Y-121587628D01*
X78699905Y-121587628D02*
X78747524Y-121635247D01*
X78747524Y-121635247D02*
X78842762Y-121682866D01*
X78842762Y-121682866D02*
X79033238Y-121682866D01*
X79033238Y-121682866D02*
X79128476Y-121635247D01*
X79128476Y-121635247D02*
X79176095Y-121587628D01*
X79176095Y-121587628D02*
X79223714Y-121492390D01*
X122832905Y-166806819D02*
X122832905Y-165806819D01*
X122832905Y-165806819D02*
X123071000Y-165806819D01*
X123071000Y-165806819D02*
X123213857Y-165854438D01*
X123213857Y-165854438D02*
X123309095Y-165949676D01*
X123309095Y-165949676D02*
X123356714Y-166044914D01*
X123356714Y-166044914D02*
X123404333Y-166235390D01*
X123404333Y-166235390D02*
X123404333Y-166378247D01*
X123404333Y-166378247D02*
X123356714Y-166568723D01*
X123356714Y-166568723D02*
X123309095Y-166663961D01*
X123309095Y-166663961D02*
X123213857Y-166759200D01*
X123213857Y-166759200D02*
X123071000Y-166806819D01*
X123071000Y-166806819D02*
X122832905Y-166806819D01*
X124261476Y-166140152D02*
X124261476Y-166806819D01*
X124023381Y-165759200D02*
X123785286Y-166473485D01*
X123785286Y-166473485D02*
X124404333Y-166473485D01*
X145057905Y-145987819D02*
X145057905Y-144987819D01*
X145057905Y-144987819D02*
X145296000Y-144987819D01*
X145296000Y-144987819D02*
X145438857Y-145035438D01*
X145438857Y-145035438D02*
X145534095Y-145130676D01*
X145534095Y-145130676D02*
X145581714Y-145225914D01*
X145581714Y-145225914D02*
X145629333Y-145416390D01*
X145629333Y-145416390D02*
X145629333Y-145559247D01*
X145629333Y-145559247D02*
X145581714Y-145749723D01*
X145581714Y-145749723D02*
X145534095Y-145844961D01*
X145534095Y-145844961D02*
X145438857Y-145940200D01*
X145438857Y-145940200D02*
X145296000Y-145987819D01*
X145296000Y-145987819D02*
X145057905Y-145987819D01*
X145962667Y-144987819D02*
X146581714Y-144987819D01*
X146581714Y-144987819D02*
X146248381Y-145368771D01*
X146248381Y-145368771D02*
X146391238Y-145368771D01*
X146391238Y-145368771D02*
X146486476Y-145416390D01*
X146486476Y-145416390D02*
X146534095Y-145464009D01*
X146534095Y-145464009D02*
X146581714Y-145559247D01*
X146581714Y-145559247D02*
X146581714Y-145797342D01*
X146581714Y-145797342D02*
X146534095Y-145892580D01*
X146534095Y-145892580D02*
X146486476Y-145940200D01*
X146486476Y-145940200D02*
X146391238Y-145987819D01*
X146391238Y-145987819D02*
X146105524Y-145987819D01*
X146105524Y-145987819D02*
X146010286Y-145940200D01*
X146010286Y-145940200D02*
X145962667Y-145892580D01*
X75334905Y-118126819D02*
X75334905Y-117126819D01*
X75334905Y-117126819D02*
X75573000Y-117126819D01*
X75573000Y-117126819D02*
X75715857Y-117174438D01*
X75715857Y-117174438D02*
X75811095Y-117269676D01*
X75811095Y-117269676D02*
X75858714Y-117364914D01*
X75858714Y-117364914D02*
X75906333Y-117555390D01*
X75906333Y-117555390D02*
X75906333Y-117698247D01*
X75906333Y-117698247D02*
X75858714Y-117888723D01*
X75858714Y-117888723D02*
X75811095Y-117983961D01*
X75811095Y-117983961D02*
X75715857Y-118079200D01*
X75715857Y-118079200D02*
X75573000Y-118126819D01*
X75573000Y-118126819D02*
X75334905Y-118126819D01*
X76811095Y-117126819D02*
X76334905Y-117126819D01*
X76334905Y-117126819D02*
X76287286Y-117603009D01*
X76287286Y-117603009D02*
X76334905Y-117555390D01*
X76334905Y-117555390D02*
X76430143Y-117507771D01*
X76430143Y-117507771D02*
X76668238Y-117507771D01*
X76668238Y-117507771D02*
X76763476Y-117555390D01*
X76763476Y-117555390D02*
X76811095Y-117603009D01*
X76811095Y-117603009D02*
X76858714Y-117698247D01*
X76858714Y-117698247D02*
X76858714Y-117936342D01*
X76858714Y-117936342D02*
X76811095Y-118031580D01*
X76811095Y-118031580D02*
X76763476Y-118079200D01*
X76763476Y-118079200D02*
X76668238Y-118126819D01*
X76668238Y-118126819D02*
X76430143Y-118126819D01*
X76430143Y-118126819D02*
X76334905Y-118079200D01*
X76334905Y-118079200D02*
X76287286Y-118031580D01*
X167028905Y-124240819D02*
X167028905Y-123240819D01*
X167028905Y-123240819D02*
X167267000Y-123240819D01*
X167267000Y-123240819D02*
X167409857Y-123288438D01*
X167409857Y-123288438D02*
X167505095Y-123383676D01*
X167505095Y-123383676D02*
X167552714Y-123478914D01*
X167552714Y-123478914D02*
X167600333Y-123669390D01*
X167600333Y-123669390D02*
X167600333Y-123812247D01*
X167600333Y-123812247D02*
X167552714Y-124002723D01*
X167552714Y-124002723D02*
X167505095Y-124097961D01*
X167505095Y-124097961D02*
X167409857Y-124193200D01*
X167409857Y-124193200D02*
X167267000Y-124240819D01*
X167267000Y-124240819D02*
X167028905Y-124240819D01*
X167981286Y-123336057D02*
X168028905Y-123288438D01*
X168028905Y-123288438D02*
X168124143Y-123240819D01*
X168124143Y-123240819D02*
X168362238Y-123240819D01*
X168362238Y-123240819D02*
X168457476Y-123288438D01*
X168457476Y-123288438D02*
X168505095Y-123336057D01*
X168505095Y-123336057D02*
X168552714Y-123431295D01*
X168552714Y-123431295D02*
X168552714Y-123526533D01*
X168552714Y-123526533D02*
X168505095Y-123669390D01*
X168505095Y-123669390D02*
X167933667Y-124240819D01*
X167933667Y-124240819D02*
X168552714Y-124240819D01*
X67571714Y-99203819D02*
X67571714Y-98203819D01*
X67571714Y-98203819D02*
X67809809Y-98203819D01*
X67809809Y-98203819D02*
X67952666Y-98251438D01*
X67952666Y-98251438D02*
X68047904Y-98346676D01*
X68047904Y-98346676D02*
X68095523Y-98441914D01*
X68095523Y-98441914D02*
X68143142Y-98632390D01*
X68143142Y-98632390D02*
X68143142Y-98775247D01*
X68143142Y-98775247D02*
X68095523Y-98965723D01*
X68095523Y-98965723D02*
X68047904Y-99060961D01*
X68047904Y-99060961D02*
X67952666Y-99156200D01*
X67952666Y-99156200D02*
X67809809Y-99203819D01*
X67809809Y-99203819D02*
X67571714Y-99203819D01*
X69095523Y-99203819D02*
X68524095Y-99203819D01*
X68809809Y-99203819D02*
X68809809Y-98203819D01*
X68809809Y-98203819D02*
X68714571Y-98346676D01*
X68714571Y-98346676D02*
X68619333Y-98441914D01*
X68619333Y-98441914D02*
X68524095Y-98489533D01*
X69714571Y-98203819D02*
X69809809Y-98203819D01*
X69809809Y-98203819D02*
X69905047Y-98251438D01*
X69905047Y-98251438D02*
X69952666Y-98299057D01*
X69952666Y-98299057D02*
X70000285Y-98394295D01*
X70000285Y-98394295D02*
X70047904Y-98584771D01*
X70047904Y-98584771D02*
X70047904Y-98822866D01*
X70047904Y-98822866D02*
X70000285Y-99013342D01*
X70000285Y-99013342D02*
X69952666Y-99108580D01*
X69952666Y-99108580D02*
X69905047Y-99156200D01*
X69905047Y-99156200D02*
X69809809Y-99203819D01*
X69809809Y-99203819D02*
X69714571Y-99203819D01*
X69714571Y-99203819D02*
X69619333Y-99156200D01*
X69619333Y-99156200D02*
X69571714Y-99108580D01*
X69571714Y-99108580D02*
X69524095Y-99013342D01*
X69524095Y-99013342D02*
X69476476Y-98822866D01*
X69476476Y-98822866D02*
X69476476Y-98584771D01*
X69476476Y-98584771D02*
X69524095Y-98394295D01*
X69524095Y-98394295D02*
X69571714Y-98299057D01*
X69571714Y-98299057D02*
X69619333Y-98251438D01*
X69619333Y-98251438D02*
X69714571Y-98203819D01*
X155217905Y-134654819D02*
X155217905Y-133654819D01*
X155217905Y-133654819D02*
X155456000Y-133654819D01*
X155456000Y-133654819D02*
X155598857Y-133702438D01*
X155598857Y-133702438D02*
X155694095Y-133797676D01*
X155694095Y-133797676D02*
X155741714Y-133892914D01*
X155741714Y-133892914D02*
X155789333Y-134083390D01*
X155789333Y-134083390D02*
X155789333Y-134226247D01*
X155789333Y-134226247D02*
X155741714Y-134416723D01*
X155741714Y-134416723D02*
X155694095Y-134511961D01*
X155694095Y-134511961D02*
X155598857Y-134607200D01*
X155598857Y-134607200D02*
X155456000Y-134654819D01*
X155456000Y-134654819D02*
X155217905Y-134654819D01*
X156122667Y-133654819D02*
X156789333Y-133654819D01*
X156789333Y-133654819D02*
X156360762Y-134654819D01*
X139983666Y-115946819D02*
X139983666Y-116661104D01*
X139983666Y-116661104D02*
X139936047Y-116803961D01*
X139936047Y-116803961D02*
X139840809Y-116899200D01*
X139840809Y-116899200D02*
X139697952Y-116946819D01*
X139697952Y-116946819D02*
X139602714Y-116946819D01*
X140983666Y-116946819D02*
X140412238Y-116946819D01*
X140697952Y-116946819D02*
X140697952Y-115946819D01*
X140697952Y-115946819D02*
X140602714Y-116089676D01*
X140602714Y-116089676D02*
X140507476Y-116184914D01*
X140507476Y-116184914D02*
X140412238Y-116232533D01*
X130527333Y-93637580D02*
X130479714Y-93685200D01*
X130479714Y-93685200D02*
X130336857Y-93732819D01*
X130336857Y-93732819D02*
X130241619Y-93732819D01*
X130241619Y-93732819D02*
X130098762Y-93685200D01*
X130098762Y-93685200D02*
X130003524Y-93589961D01*
X130003524Y-93589961D02*
X129955905Y-93494723D01*
X129955905Y-93494723D02*
X129908286Y-93304247D01*
X129908286Y-93304247D02*
X129908286Y-93161390D01*
X129908286Y-93161390D02*
X129955905Y-92970914D01*
X129955905Y-92970914D02*
X130003524Y-92875676D01*
X130003524Y-92875676D02*
X130098762Y-92780438D01*
X130098762Y-92780438D02*
X130241619Y-92732819D01*
X130241619Y-92732819D02*
X130336857Y-92732819D01*
X130336857Y-92732819D02*
X130479714Y-92780438D01*
X130479714Y-92780438D02*
X130527333Y-92828057D01*
X131479714Y-93732819D02*
X130908286Y-93732819D01*
X131194000Y-93732819D02*
X131194000Y-92732819D01*
X131194000Y-92732819D02*
X131098762Y-92875676D01*
X131098762Y-92875676D02*
X131003524Y-92970914D01*
X131003524Y-92970914D02*
X130908286Y-93018533D01*
X130643333Y-141213819D02*
X130310000Y-140737628D01*
X130071905Y-141213819D02*
X130071905Y-140213819D01*
X130071905Y-140213819D02*
X130452857Y-140213819D01*
X130452857Y-140213819D02*
X130548095Y-140261438D01*
X130548095Y-140261438D02*
X130595714Y-140309057D01*
X130595714Y-140309057D02*
X130643333Y-140404295D01*
X130643333Y-140404295D02*
X130643333Y-140547152D01*
X130643333Y-140547152D02*
X130595714Y-140642390D01*
X130595714Y-140642390D02*
X130548095Y-140690009D01*
X130548095Y-140690009D02*
X130452857Y-140737628D01*
X130452857Y-140737628D02*
X130071905Y-140737628D01*
X131024286Y-140309057D02*
X131071905Y-140261438D01*
X131071905Y-140261438D02*
X131167143Y-140213819D01*
X131167143Y-140213819D02*
X131405238Y-140213819D01*
X131405238Y-140213819D02*
X131500476Y-140261438D01*
X131500476Y-140261438D02*
X131548095Y-140309057D01*
X131548095Y-140309057D02*
X131595714Y-140404295D01*
X131595714Y-140404295D02*
X131595714Y-140499533D01*
X131595714Y-140499533D02*
X131548095Y-140642390D01*
X131548095Y-140642390D02*
X130976667Y-141213819D01*
X130976667Y-141213819D02*
X131595714Y-141213819D01*
X139192095Y-94914819D02*
X139192095Y-95724342D01*
X139192095Y-95724342D02*
X139239714Y-95819580D01*
X139239714Y-95819580D02*
X139287333Y-95867200D01*
X139287333Y-95867200D02*
X139382571Y-95914819D01*
X139382571Y-95914819D02*
X139573047Y-95914819D01*
X139573047Y-95914819D02*
X139668285Y-95867200D01*
X139668285Y-95867200D02*
X139715904Y-95819580D01*
X139715904Y-95819580D02*
X139763523Y-95724342D01*
X139763523Y-95724342D02*
X139763523Y-94914819D01*
X140763523Y-95914819D02*
X140192095Y-95914819D01*
X140477809Y-95914819D02*
X140477809Y-94914819D01*
X140477809Y-94914819D02*
X140382571Y-95057676D01*
X140382571Y-95057676D02*
X140287333Y-95152914D01*
X140287333Y-95152914D02*
X140192095Y-95200533D01*
X151259819Y-110196238D02*
X150783628Y-110529571D01*
X151259819Y-110767666D02*
X150259819Y-110767666D01*
X150259819Y-110767666D02*
X150259819Y-110386714D01*
X150259819Y-110386714D02*
X150307438Y-110291476D01*
X150307438Y-110291476D02*
X150355057Y-110243857D01*
X150355057Y-110243857D02*
X150450295Y-110196238D01*
X150450295Y-110196238D02*
X150593152Y-110196238D01*
X150593152Y-110196238D02*
X150688390Y-110243857D01*
X150688390Y-110243857D02*
X150736009Y-110291476D01*
X150736009Y-110291476D02*
X150783628Y-110386714D01*
X150783628Y-110386714D02*
X150783628Y-110767666D01*
X150259819Y-109910523D02*
X151259819Y-109577190D01*
X151259819Y-109577190D02*
X150259819Y-109243857D01*
X151259819Y-108386714D02*
X151259819Y-108958142D01*
X151259819Y-108672428D02*
X150259819Y-108672428D01*
X150259819Y-108672428D02*
X150402676Y-108767666D01*
X150402676Y-108767666D02*
X150497914Y-108862904D01*
X150497914Y-108862904D02*
X150545533Y-108958142D01*
X141351333Y-132733580D02*
X141303714Y-132781200D01*
X141303714Y-132781200D02*
X141160857Y-132828819D01*
X141160857Y-132828819D02*
X141065619Y-132828819D01*
X141065619Y-132828819D02*
X140922762Y-132781200D01*
X140922762Y-132781200D02*
X140827524Y-132685961D01*
X140827524Y-132685961D02*
X140779905Y-132590723D01*
X140779905Y-132590723D02*
X140732286Y-132400247D01*
X140732286Y-132400247D02*
X140732286Y-132257390D01*
X140732286Y-132257390D02*
X140779905Y-132066914D01*
X140779905Y-132066914D02*
X140827524Y-131971676D01*
X140827524Y-131971676D02*
X140922762Y-131876438D01*
X140922762Y-131876438D02*
X141065619Y-131828819D01*
X141065619Y-131828819D02*
X141160857Y-131828819D01*
X141160857Y-131828819D02*
X141303714Y-131876438D01*
X141303714Y-131876438D02*
X141351333Y-131924057D01*
X141732286Y-131924057D02*
X141779905Y-131876438D01*
X141779905Y-131876438D02*
X141875143Y-131828819D01*
X141875143Y-131828819D02*
X142113238Y-131828819D01*
X142113238Y-131828819D02*
X142208476Y-131876438D01*
X142208476Y-131876438D02*
X142256095Y-131924057D01*
X142256095Y-131924057D02*
X142303714Y-132019295D01*
X142303714Y-132019295D02*
X142303714Y-132114533D01*
X142303714Y-132114533D02*
X142256095Y-132257390D01*
X142256095Y-132257390D02*
X141684667Y-132828819D01*
X141684667Y-132828819D02*
X142303714Y-132828819D01*
X129281095Y-120739819D02*
X129281095Y-121549342D01*
X129281095Y-121549342D02*
X129328714Y-121644580D01*
X129328714Y-121644580D02*
X129376333Y-121692200D01*
X129376333Y-121692200D02*
X129471571Y-121739819D01*
X129471571Y-121739819D02*
X129662047Y-121739819D01*
X129662047Y-121739819D02*
X129757285Y-121692200D01*
X129757285Y-121692200D02*
X129804904Y-121644580D01*
X129804904Y-121644580D02*
X129852523Y-121549342D01*
X129852523Y-121549342D02*
X129852523Y-120739819D01*
X130281095Y-120835057D02*
X130328714Y-120787438D01*
X130328714Y-120787438D02*
X130423952Y-120739819D01*
X130423952Y-120739819D02*
X130662047Y-120739819D01*
X130662047Y-120739819D02*
X130757285Y-120787438D01*
X130757285Y-120787438D02*
X130804904Y-120835057D01*
X130804904Y-120835057D02*
X130852523Y-120930295D01*
X130852523Y-120930295D02*
X130852523Y-121025533D01*
X130852523Y-121025533D02*
X130804904Y-121168390D01*
X130804904Y-121168390D02*
X130233476Y-121739819D01*
X130233476Y-121739819D02*
X130852523Y-121739819D01*
%TO.C,D8*%
D11*
X110962000Y-149513000D02*
X110962000Y-149669000D01*
X110962000Y-151829000D02*
X110962000Y-151985000D01*
X110962000Y-149513484D02*
G75*
G02*
X114193437Y-149669000I1560000J-1235516D01*
G01*
X111481039Y-149669000D02*
G75*
G02*
X113562961Y-149669000I1040961J-1080000D01*
G01*
X113562961Y-151829000D02*
G75*
G02*
X111481039Y-151829000I-1040961J1080000D01*
G01*
X114193437Y-151829000D02*
G75*
G02*
X110962000Y-151984516I-1671437J1080000D01*
G01*
%TO.C,D6*%
X119090000Y-91474000D02*
X119090000Y-91630000D01*
X119090000Y-93790000D02*
X119090000Y-93946000D01*
X119090000Y-91474484D02*
G75*
G02*
X122321437Y-91630000I1560000J-1235516D01*
G01*
X119609039Y-91630000D02*
G75*
G02*
X121690961Y-91630000I1040961J-1080000D01*
G01*
X121690961Y-93790000D02*
G75*
G02*
X119609039Y-93790000I-1040961J1080000D01*
G01*
X122321437Y-93790000D02*
G75*
G02*
X119090000Y-93945516I-1671437J1080000D01*
G01*
%TO.C,J2*%
X143527000Y-117492000D02*
X144907000Y-117492000D01*
X143527000Y-118872000D02*
X143527000Y-117492000D01*
X143527000Y-120142000D02*
X143527000Y-122792000D01*
X143527000Y-120142000D02*
X146287000Y-120142000D01*
X143527000Y-122792000D02*
X146287000Y-122792000D01*
X146287000Y-120142000D02*
X146287000Y-122792000D01*
%TO.C,D11*%
X95722000Y-112429000D02*
X95722000Y-112585000D01*
X95722000Y-114745000D02*
X95722000Y-114901000D01*
X95722000Y-112429484D02*
G75*
G02*
X98953437Y-112585000I1560000J-1235516D01*
G01*
X96241039Y-112585000D02*
G75*
G02*
X98322961Y-112585000I1040961J-1080000D01*
G01*
X98322961Y-114745000D02*
G75*
G02*
X96241039Y-114745000I-1040961J1080000D01*
G01*
X98953437Y-114745000D02*
G75*
G02*
X95722000Y-114900516I-1671437J1080000D01*
G01*
%TO.C,D9*%
X89118000Y-120938000D02*
X89118000Y-121094000D01*
X89118000Y-123254000D02*
X89118000Y-123410000D01*
X89118000Y-120938484D02*
G75*
G02*
X92349437Y-121094000I1560000J-1235516D01*
G01*
X89637039Y-121094000D02*
G75*
G02*
X91718961Y-121094000I1040961J-1080000D01*
G01*
X91718961Y-123254000D02*
G75*
G02*
X89637039Y-123254000I-1040961J1080000D01*
G01*
X92349437Y-123254000D02*
G75*
G02*
X89118000Y-123409516I-1671437J1080000D01*
G01*
%TO.C,D4*%
X94198000Y-135162000D02*
X94198000Y-135318000D01*
X94198000Y-137478000D02*
X94198000Y-137634000D01*
X94198000Y-135162484D02*
G75*
G02*
X97429437Y-135318000I1560000J-1235516D01*
G01*
X94717039Y-135318000D02*
G75*
G02*
X96798961Y-135318000I1040961J-1080000D01*
G01*
X96798961Y-137478000D02*
G75*
G02*
X94717039Y-137478000I-1040961J1080000D01*
G01*
X97429437Y-137478000D02*
G75*
G02*
X94198000Y-137633516I-1671437J1080000D01*
G01*
%TO.C,D3*%
X144236000Y-147257000D02*
X144236000Y-147413000D01*
X144236000Y-149573000D02*
X144236000Y-149729000D01*
X144236000Y-147257484D02*
G75*
G02*
X147467437Y-147413000I1560000J-1235516D01*
G01*
X144755039Y-147413000D02*
G75*
G02*
X146836961Y-147413000I1040961J-1080000D01*
G01*
X146836961Y-149573000D02*
G75*
G02*
X144755039Y-149573000I-1040961J1080000D01*
G01*
X147467437Y-149573000D02*
G75*
G02*
X144236000Y-149728516I-1671437J1080000D01*
G01*
%TO.C,D5*%
X90261000Y-128304000D02*
X90261000Y-128460000D01*
X90261000Y-130620000D02*
X90261000Y-130776000D01*
X90261000Y-128304484D02*
G75*
G02*
X93492437Y-128460000I1560000J-1235516D01*
G01*
X90780039Y-128460000D02*
G75*
G02*
X92861961Y-128460000I1040961J-1080000D01*
G01*
X92861961Y-130620000D02*
G75*
G02*
X90780039Y-130620000I-1040961J1080000D01*
G01*
X93492437Y-130620000D02*
G75*
G02*
X90261000Y-130775516I-1671437J1080000D01*
G01*
%TO.C,D2*%
X166207000Y-125510000D02*
X166207000Y-125666000D01*
X166207000Y-127826000D02*
X166207000Y-127982000D01*
X166207000Y-125510484D02*
G75*
G02*
X169438437Y-125666000I1560000J-1235516D01*
G01*
X166726039Y-125666000D02*
G75*
G02*
X168807961Y-125666000I1040961J-1080000D01*
G01*
X168807961Y-127826000D02*
G75*
G02*
X166726039Y-127826000I-1040961J1080000D01*
G01*
X169438437Y-127826000D02*
G75*
G02*
X166207000Y-127981516I-1671437J1080000D01*
G01*
%TO.C,D10*%
X104739000Y-104809000D02*
X104739000Y-104965000D01*
X104739000Y-107125000D02*
X104739000Y-107281000D01*
X104739000Y-104809484D02*
G75*
G02*
X107970437Y-104965000I1560000J-1235516D01*
G01*
X105258039Y-104965000D02*
G75*
G02*
X107339961Y-104965000I1040961J-1080000D01*
G01*
X107339961Y-107125000D02*
G75*
G02*
X105258039Y-107125000I-1040961J1080000D01*
G01*
X107970437Y-107125000D02*
G75*
G02*
X104739000Y-107280516I-1671437J1080000D01*
G01*
%TO.C,D7*%
X154396000Y-135924000D02*
X154396000Y-136080000D01*
X154396000Y-138240000D02*
X154396000Y-138396000D01*
X154396000Y-135924484D02*
G75*
G02*
X157627437Y-136080000I1560000J-1235516D01*
G01*
X154915039Y-136080000D02*
G75*
G02*
X156996961Y-136080000I1040961J-1080000D01*
G01*
X156996961Y-138240000D02*
G75*
G02*
X154915039Y-138240000I-1040961J1080000D01*
G01*
X157627437Y-138240000D02*
G75*
G02*
X154396000Y-138395516I-1671437J1080000D01*
G01*
%TO.C,J1*%
X138937000Y-117492000D02*
X140317000Y-117492000D01*
X138937000Y-118872000D02*
X138937000Y-117492000D01*
X138937000Y-120142000D02*
X138937000Y-122792000D01*
X138937000Y-120142000D02*
X141697000Y-120142000D01*
X138937000Y-122792000D02*
X141697000Y-122792000D01*
X141697000Y-120142000D02*
X141697000Y-122792000D01*
%TO.C,C1*%
X127889225Y-95553000D02*
X128389225Y-95553000D01*
X128139225Y-95303000D02*
X128139225Y-95803000D01*
X130694000Y-94448000D02*
X130694000Y-95988000D01*
X130694000Y-98068000D02*
X130694000Y-99608000D01*
X130734000Y-94448000D02*
X130734000Y-95988000D01*
X130734000Y-98068000D02*
X130734000Y-99608000D01*
X130774000Y-94449000D02*
X130774000Y-95988000D01*
X130774000Y-98068000D02*
X130774000Y-99607000D01*
X130814000Y-94451000D02*
X130814000Y-95988000D01*
X130814000Y-98068000D02*
X130814000Y-99605000D01*
X130854000Y-94453000D02*
X130854000Y-95988000D01*
X130854000Y-98068000D02*
X130854000Y-99603000D01*
X130894000Y-94456000D02*
X130894000Y-95988000D01*
X130894000Y-98068000D02*
X130894000Y-99600000D01*
X130934000Y-94459000D02*
X130934000Y-95988000D01*
X130934000Y-98068000D02*
X130934000Y-99597000D01*
X130974000Y-94463000D02*
X130974000Y-95988000D01*
X130974000Y-98068000D02*
X130974000Y-99593000D01*
X131014000Y-94468000D02*
X131014000Y-95988000D01*
X131014000Y-98068000D02*
X131014000Y-99588000D01*
X131054000Y-94473000D02*
X131054000Y-95988000D01*
X131054000Y-98068000D02*
X131054000Y-99583000D01*
X131094000Y-94479000D02*
X131094000Y-95988000D01*
X131094000Y-98068000D02*
X131094000Y-99577000D01*
X131134000Y-94485000D02*
X131134000Y-95988000D01*
X131134000Y-98068000D02*
X131134000Y-99571000D01*
X131174000Y-94492000D02*
X131174000Y-95988000D01*
X131174000Y-98068000D02*
X131174000Y-99564000D01*
X131214000Y-94500000D02*
X131214000Y-95988000D01*
X131214000Y-98068000D02*
X131214000Y-99556000D01*
X131254000Y-94509000D02*
X131254000Y-95988000D01*
X131254000Y-98068000D02*
X131254000Y-99547000D01*
X131294000Y-94518000D02*
X131294000Y-95988000D01*
X131294000Y-98068000D02*
X131294000Y-99538000D01*
X131334000Y-94527000D02*
X131334000Y-95988000D01*
X131334000Y-98068000D02*
X131334000Y-99529000D01*
X131374000Y-94538000D02*
X131374000Y-95988000D01*
X131374000Y-98068000D02*
X131374000Y-99518000D01*
X131414000Y-94549000D02*
X131414000Y-95988000D01*
X131414000Y-98068000D02*
X131414000Y-99507000D01*
X131454000Y-94561000D02*
X131454000Y-95988000D01*
X131454000Y-98068000D02*
X131454000Y-99495000D01*
X131494000Y-94573000D02*
X131494000Y-95988000D01*
X131494000Y-98068000D02*
X131494000Y-99483000D01*
X131534000Y-94586000D02*
X131534000Y-95988000D01*
X131534000Y-98068000D02*
X131534000Y-99470000D01*
X131574000Y-94600000D02*
X131574000Y-95988000D01*
X131574000Y-98068000D02*
X131574000Y-99456000D01*
X131614000Y-94615000D02*
X131614000Y-95988000D01*
X131614000Y-98068000D02*
X131614000Y-99441000D01*
X131654000Y-94630000D02*
X131654000Y-95988000D01*
X131654000Y-98068000D02*
X131654000Y-99426000D01*
X131694000Y-94646000D02*
X131694000Y-95988000D01*
X131694000Y-98068000D02*
X131694000Y-99410000D01*
X131734000Y-94663000D02*
X131734000Y-95988000D01*
X131734000Y-98068000D02*
X131734000Y-99393000D01*
X131774000Y-94681000D02*
X131774000Y-95988000D01*
X131774000Y-98068000D02*
X131774000Y-99375000D01*
X131814000Y-94699000D02*
X131814000Y-95988000D01*
X131814000Y-98068000D02*
X131814000Y-99357000D01*
X131854000Y-94719000D02*
X131854000Y-95988000D01*
X131854000Y-98068000D02*
X131854000Y-99337000D01*
X131894000Y-94739000D02*
X131894000Y-95988000D01*
X131894000Y-98068000D02*
X131894000Y-99317000D01*
X131934000Y-94760000D02*
X131934000Y-95988000D01*
X131934000Y-98068000D02*
X131934000Y-99296000D01*
X131974000Y-94782000D02*
X131974000Y-95988000D01*
X131974000Y-98068000D02*
X131974000Y-99274000D01*
X132014000Y-94805000D02*
X132014000Y-95988000D01*
X132014000Y-98068000D02*
X132014000Y-99251000D01*
X132054000Y-94829000D02*
X132054000Y-95988000D01*
X132054000Y-98068000D02*
X132054000Y-99227000D01*
X132094000Y-94853000D02*
X132094000Y-95988000D01*
X132094000Y-98068000D02*
X132094000Y-99203000D01*
X132134000Y-94879000D02*
X132134000Y-95988000D01*
X132134000Y-98068000D02*
X132134000Y-99177000D01*
X132174000Y-94906000D02*
X132174000Y-95988000D01*
X132174000Y-98068000D02*
X132174000Y-99150000D01*
X132214000Y-94934000D02*
X132214000Y-95988000D01*
X132214000Y-98068000D02*
X132214000Y-99122000D01*
X132254000Y-94963000D02*
X132254000Y-95988000D01*
X132254000Y-98068000D02*
X132254000Y-99093000D01*
X132294000Y-94993000D02*
X132294000Y-95988000D01*
X132294000Y-98068000D02*
X132294000Y-99063000D01*
X132334000Y-95025000D02*
X132334000Y-95988000D01*
X132334000Y-98068000D02*
X132334000Y-99031000D01*
X132374000Y-95058000D02*
X132374000Y-95988000D01*
X132374000Y-98068000D02*
X132374000Y-98998000D01*
X132414000Y-95092000D02*
X132414000Y-95988000D01*
X132414000Y-98068000D02*
X132414000Y-98964000D01*
X132454000Y-95127000D02*
X132454000Y-95988000D01*
X132454000Y-98068000D02*
X132454000Y-98929000D01*
X132494000Y-95164000D02*
X132494000Y-95988000D01*
X132494000Y-98068000D02*
X132494000Y-98892000D01*
X132534000Y-95203000D02*
X132534000Y-95988000D01*
X132534000Y-98068000D02*
X132534000Y-98853000D01*
X132574000Y-95243000D02*
X132574000Y-95988000D01*
X132574000Y-98068000D02*
X132574000Y-98813000D01*
X132614000Y-95285000D02*
X132614000Y-95988000D01*
X132614000Y-98068000D02*
X132614000Y-98771000D01*
X132654000Y-95329000D02*
X132654000Y-95988000D01*
X132654000Y-98068000D02*
X132654000Y-98727000D01*
X132694000Y-95376000D02*
X132694000Y-95988000D01*
X132694000Y-98068000D02*
X132694000Y-98680000D01*
X132734000Y-95424000D02*
X132734000Y-98632000D01*
X132774000Y-95475000D02*
X132774000Y-98581000D01*
X132814000Y-95529000D02*
X132814000Y-98527000D01*
X132854000Y-95585000D02*
X132854000Y-98471000D01*
X132894000Y-95645000D02*
X132894000Y-98411000D01*
X132934000Y-95709000D02*
X132934000Y-98347000D01*
X132974000Y-95777000D02*
X132974000Y-98279000D01*
X133014000Y-95851000D02*
X133014000Y-98205000D01*
X133054000Y-95930000D02*
X133054000Y-98126000D01*
X133094000Y-96017000D02*
X133094000Y-98039000D01*
X133134000Y-96114000D02*
X133134000Y-97942000D01*
X133174000Y-96223000D02*
X133174000Y-97833000D01*
X133214000Y-96351000D02*
X133214000Y-97705000D01*
X133254000Y-96511000D02*
X133254000Y-97545000D01*
X133294000Y-96745000D02*
X133294000Y-97311000D01*
X133314000Y-97028000D02*
G75*
G02*
X128074000Y-97028000I-2620000J0D01*
G01*
X128074000Y-97028000D02*
G75*
G02*
X133314000Y-97028000I2620000J0D01*
G01*
%TO.C,R2*%
X127540000Y-141759000D02*
X134080000Y-141759000D01*
X127540000Y-142089000D02*
X127540000Y-141759000D01*
X127540000Y-144169000D02*
X127540000Y-144499000D01*
X127540000Y-144499000D02*
X134080000Y-144499000D01*
X134080000Y-141759000D02*
X134080000Y-142089000D01*
X134080000Y-144499000D02*
X134080000Y-144169000D01*
%TO.C,U1*%
X137304000Y-96460000D02*
X137304000Y-106740000D01*
X137304000Y-106740000D02*
X142604000Y-106740000D01*
X138954000Y-96460000D02*
X137304000Y-96460000D01*
X142604000Y-96460000D02*
X140954000Y-96460000D01*
X142604000Y-106740000D02*
X142604000Y-96460000D01*
X140954000Y-96460000D02*
G75*
G02*
X138954000Y-96460000I-1000000J0D01*
G01*
%TO.C,RV1*%
X151695000Y-104641000D02*
X156915000Y-104641000D01*
X151695000Y-111741000D02*
X151695000Y-104641000D01*
X151695000Y-114561000D02*
X151695000Y-112441000D01*
X151695000Y-114561000D02*
X156915000Y-114561000D01*
X156915000Y-114561000D02*
X156915000Y-104641000D01*
X151695000Y-112141000D02*
X151365000Y-112381000D01*
X151365000Y-111901000D01*
X151695000Y-112141000D01*
G36*
X151695000Y-112141000D02*
G01*
X151365000Y-112381000D01*
X151365000Y-111901000D01*
X151695000Y-112141000D01*
G37*
%TO.C,R1*%
X138960000Y-108745000D02*
X145500000Y-108745000D01*
X138960000Y-109075000D02*
X138960000Y-108745000D01*
X138960000Y-111155000D02*
X138960000Y-111485000D01*
X138960000Y-111485000D02*
X145500000Y-111485000D01*
X145500000Y-108745000D02*
X145500000Y-109075000D01*
X145500000Y-111485000D02*
X145500000Y-111155000D01*
%TO.C,C2*%
X137648000Y-133504000D02*
X145388000Y-133504000D01*
X137648000Y-136244000D02*
X137648000Y-133504000D01*
X145388000Y-133504000D02*
X145388000Y-136244000D01*
X145388000Y-136244000D02*
X137648000Y-136244000D01*
%TO.C,U2*%
D12*
X126741000Y-113375440D02*
X126741000Y-114096431D01*
X126741000Y-115773569D02*
X126741000Y-116636431D01*
X126741000Y-118313569D02*
X126741000Y-119176431D01*
X126741000Y-120853569D02*
X126741000Y-121716431D01*
X126741000Y-123393569D02*
X126741000Y-124256431D01*
X126741000Y-125933569D02*
X126741000Y-126796431D01*
X126741000Y-128473569D02*
X126741000Y-129336431D01*
X126741000Y-131127500D02*
X133345000Y-131127500D01*
X133345000Y-111442500D02*
X127014165Y-111442500D01*
X133345000Y-114096431D02*
X133345000Y-113233569D01*
X133345000Y-116636431D02*
X133345000Y-115773569D01*
X133345000Y-119176431D02*
X133345000Y-118313569D01*
X133345000Y-121716431D02*
X133345000Y-120853569D01*
X133345000Y-124256431D02*
X133345000Y-123393569D01*
X133345000Y-126796431D02*
X133345000Y-125933569D01*
X133345000Y-129336431D02*
X133345000Y-128473569D01*
X130347800Y-111442500D02*
G75*
G02*
X129738200Y-111442500I-304800J0D01*
G01*
%TD*%
M02*
