%TF.GenerationSoftware,KiCad,Pcbnew,10.0.2*%
%TF.CreationDate,2026-06-01T21:40:57-04:00*%
%TF.ProjectId,BlinkyBoard,426c696e-6b79-4426-9f61-72642e6b6963,rev?*%
%TF.SameCoordinates,Original*%
%TF.FileFunction,Copper,L2,Bot*%
%TF.FilePolarity,Positive*%
%FSLAX46Y46*%
G04 Gerber Fmt 4.6, Leading zero omitted, Abs format (unit mm)*
G04 Created by KiCad (PCBNEW 10.0.2) date 2026-06-01 21:40:57*
%MOMM*%
%LPD*%
G01*
G04 APERTURE LIST*
G04 Aperture macros list*
%AMRoundRect*
0 Rectangle with rounded corners*
0 $1 Rounding radius*
0 $2 $3 $4 $5 $6 $7 $8 $9 X,Y pos of 4 corners*
0 Add a 4 corners polygon primitive as box body*
4,1,4,$2,$3,$4,$5,$6,$7,$8,$9,$2,$3,0*
0 Add four circle primitives for the rounded corners*
1,1,$1+$1,$2,$3*
1,1,$1+$1,$4,$5*
1,1,$1+$1,$6,$7*
1,1,$1+$1,$8,$9*
0 Add four rect primitives between the rounded corners*
20,1,$1+$1,$2,$3,$4,$5,0*
20,1,$1+$1,$4,$5,$6,$7,0*
20,1,$1+$1,$6,$7,$8,$9,0*
20,1,$1+$1,$8,$9,$2,$3,0*%
G04 Aperture macros list end*
%TA.AperFunction,ComponentPad*%
%ADD10R,1.800000X1.800000*%
%TD*%
%TA.AperFunction,ComponentPad*%
%ADD11C,1.800000*%
%TD*%
%TA.AperFunction,ComponentPad*%
%ADD12R,1.700000X1.700000*%
%TD*%
%TA.AperFunction,ComponentPad*%
%ADD13C,1.700000*%
%TD*%
%TA.AperFunction,ComponentPad*%
%ADD14RoundRect,0.250000X-0.550000X-0.550000X0.550000X-0.550000X0.550000X0.550000X-0.550000X0.550000X0*%
%TD*%
%TA.AperFunction,ComponentPad*%
%ADD15C,1.600000*%
%TD*%
%TA.AperFunction,ComponentPad*%
%ADD16RoundRect,0.412500X0.412500X-0.412500X0.412500X0.412500X-0.412500X0.412500X-0.412500X-0.412500X0*%
%TD*%
%TA.AperFunction,ComponentPad*%
%ADD17C,1.650000*%
%TD*%
%TA.AperFunction,ComponentPad*%
%ADD18C,2.000000*%
%TD*%
%TA.AperFunction,ComponentPad*%
%ADD19R,1.295400X1.295400*%
%TD*%
%TA.AperFunction,ComponentPad*%
%ADD20C,1.295400*%
%TD*%
%TA.AperFunction,Conductor*%
%ADD21C,0.200000*%
%TD*%
G04 APERTURE END LIST*
D10*
%TO.P,D8,1,K*%
%TO.N,Net-(D10-K)*%
X111252000Y-150749000D03*
D11*
%TO.P,D8,2,A*%
%TO.N,Net-(D8-A)*%
X113792000Y-150749000D03*
%TD*%
D10*
%TO.P,D6,1,K*%
%TO.N,Net-(D10-K)*%
X119380000Y-92710000D03*
D11*
%TO.P,D6,2,A*%
%TO.N,Net-(D6-A)*%
X121920000Y-92710000D03*
%TD*%
D12*
%TO.P,J2,1,Pin_1*%
%TO.N,unconnected-(J2-Pin_1-Pad1)*%
X144907000Y-118872000D03*
D13*
%TO.P,J2,2,Pin_2*%
%TO.N,unconnected-(J2-Pin_2-Pad2)*%
X144907000Y-121412000D03*
%TD*%
D10*
%TO.P,D11,1,K*%
%TO.N,Net-(D10-K)*%
X96012000Y-113665000D03*
D11*
%TO.P,D11,2,A*%
%TO.N,Net-(D11-A)*%
X98552000Y-113665000D03*
%TD*%
D10*
%TO.P,D9,1,K*%
%TO.N,Net-(D10-K)*%
X89408000Y-122174000D03*
D11*
%TO.P,D9,2,A*%
%TO.N,Net-(D9-A)*%
X91948000Y-122174000D03*
%TD*%
D10*
%TO.P,D4,1,K*%
%TO.N,Net-(D10-K)*%
X94488000Y-136398000D03*
D11*
%TO.P,D4,2,A*%
%TO.N,Net-(D4-A)*%
X97028000Y-136398000D03*
%TD*%
D10*
%TO.P,D3,1,K*%
%TO.N,Net-(D10-K)*%
X144526000Y-148493000D03*
D11*
%TO.P,D3,2,A*%
%TO.N,Net-(D3-A)*%
X147066000Y-148493000D03*
%TD*%
D10*
%TO.P,D5,1,K*%
%TO.N,Net-(D10-K)*%
X90551000Y-129540000D03*
D11*
%TO.P,D5,2,A*%
%TO.N,Net-(D5-A)*%
X93091000Y-129540000D03*
%TD*%
D10*
%TO.P,D2,1,K*%
%TO.N,Net-(D10-K)*%
X166497000Y-126746000D03*
D11*
%TO.P,D2,2,A*%
%TO.N,Net-(D2-A)*%
X169037000Y-126746000D03*
%TD*%
D10*
%TO.P,D10,1,K*%
%TO.N,Net-(D10-K)*%
X105029000Y-106045000D03*
D11*
%TO.P,D10,2,A*%
%TO.N,Net-(D10-A)*%
X107569000Y-106045000D03*
%TD*%
D10*
%TO.P,D7,1,K*%
%TO.N,Net-(D10-K)*%
X154686000Y-137160000D03*
D11*
%TO.P,D7,2,A*%
%TO.N,Net-(D7-A)*%
X157226000Y-137160000D03*
%TD*%
D12*
%TO.P,J1,1,Pin_1*%
%TO.N,+5V*%
X140317000Y-118872000D03*
D13*
%TO.P,J1,2,Pin_2*%
%TO.N,GND*%
X140317000Y-121412000D03*
%TD*%
D14*
%TO.P,C1,1*%
%TO.N,TR*%
X129694000Y-97028000D03*
D15*
%TO.P,C1,2*%
%TO.N,GND*%
X131694000Y-97028000D03*
%TD*%
%TO.P,R2,1*%
%TO.N,Net-(D10-K)*%
X127000000Y-143129000D03*
%TO.P,R2,2*%
%TO.N,GND*%
X134620000Y-143129000D03*
%TD*%
D14*
%TO.P,U1,1,GND*%
%TO.N,GND*%
X136144000Y-97790000D03*
D15*
%TO.P,U1,2,TR*%
%TO.N,TR*%
X136144000Y-100330000D03*
%TO.P,U1,3,Q*%
%TO.N,OUT*%
X136144000Y-102870000D03*
%TO.P,U1,4,R*%
%TO.N,+5V*%
X136144000Y-105410000D03*
%TO.P,U1,5,CV*%
%TO.N,Net-(U1-CV)*%
X143764000Y-105410000D03*
%TO.P,U1,6,THR*%
%TO.N,TR*%
X143764000Y-102870000D03*
%TO.P,U1,7,DIS*%
%TO.N,Net-(U1-DIS)*%
X143764000Y-100330000D03*
%TO.P,U1,8,VCC*%
%TO.N,+5V*%
X143764000Y-97790000D03*
%TD*%
D16*
%TO.P,RV1,1,1*%
%TO.N,Net-(U1-DIS)*%
X154305000Y-112141000D03*
D17*
%TO.P,RV1,2,2*%
X154305000Y-109601000D03*
%TO.P,RV1,3,3*%
%TO.N,TR*%
X154305000Y-107061000D03*
%TD*%
D15*
%TO.P,R1,1*%
%TO.N,/<NO NET>*%
X138420000Y-110115000D03*
%TO.P,R1,2*%
%TO.N,Net-(U1-DIS)*%
X146040000Y-110115000D03*
%TD*%
D18*
%TO.P,C2,1*%
%TO.N,GND*%
X139018000Y-134874000D03*
%TO.P,C2,2*%
%TO.N,Net-(U1-CV)*%
X144018000Y-134874000D03*
%TD*%
D19*
%TO.P,U2,1,Q5*%
%TO.N,Net-(D6-A)*%
X126233000Y-112395000D03*
D20*
%TO.P,U2,2,Q1*%
%TO.N,Net-(D10-A)*%
X126233000Y-114935000D03*
%TO.P,U2,3,Q0*%
%TO.N,Net-(D11-A)*%
X126233000Y-117475000D03*
%TO.P,U2,4,Q2*%
%TO.N,Net-(D9-A)*%
X126233000Y-120015000D03*
%TO.P,U2,5,Q6*%
%TO.N,Net-(D5-A)*%
X126233000Y-122555000D03*
%TO.P,U2,6,Q7*%
%TO.N,Net-(D4-A)*%
X126233000Y-125095000D03*
%TO.P,U2,7,Q3*%
%TO.N,Net-(D8-A)*%
X126233000Y-127635000D03*
%TO.P,U2,8,VSS*%
%TO.N,GND*%
X126233000Y-130175000D03*
%TO.P,U2,9,Q8*%
%TO.N,Net-(D3-A)*%
X133853000Y-130175000D03*
%TO.P,U2,10,Q4*%
%TO.N,Net-(D7-A)*%
X133853000Y-127635000D03*
%TO.P,U2,11,Q9*%
%TO.N,Net-(D2-A)*%
X133853000Y-125095000D03*
%TO.P,U2,12,Cout*%
%TO.N,unconnected-(U2-Cout-Pad12)*%
X133853000Y-122555000D03*
%TO.P,U2,13,CKEN*%
%TO.N,GND*%
X133853000Y-120015000D03*
%TO.P,U2,14,CLK*%
%TO.N,OUT*%
X133853000Y-117475000D03*
%TO.P,U2,15,Reset*%
%TO.N,GND*%
X133853000Y-114935000D03*
%TO.P,U2,16,VDD*%
%TO.N,+5V*%
X133853000Y-112395000D03*
%TD*%
%TO.N,Net-(D11-A)*%
D21*
X101346000Y-116459000D02*
X98552000Y-113665000D01*
X101346000Y-117475000D02*
X101346000Y-116459000D01*
X125725000Y-117983000D02*
X101854000Y-117983000D01*
X101854000Y-117983000D02*
X101346000Y-117475000D01*
X126233000Y-117475000D02*
X125725000Y-117983000D01*
%TO.N,Net-(D10-K)*%
X105029000Y-102362000D02*
X105029000Y-106045000D01*
%TO.N,Net-(D10-A)*%
X111252000Y-106045000D02*
X107569000Y-106045000D01*
X111633000Y-106426000D02*
X111252000Y-106045000D01*
X114046000Y-106426000D02*
X122555000Y-114935000D01*
X111633000Y-106426000D02*
X114046000Y-106426000D01*
X122555000Y-114935000D02*
X126233000Y-114935000D01*
%TO.N,Net-(D10-K)*%
X96012000Y-111379000D02*
X105029000Y-102362000D01*
X96012000Y-113665000D02*
X96012000Y-111379000D01*
X89408000Y-120269000D02*
X96012000Y-113665000D01*
X89408000Y-122174000D02*
X89408000Y-120269000D01*
X90551000Y-123317000D02*
X89408000Y-122174000D01*
X90551000Y-129540000D02*
X90551000Y-123317000D01*
X111252000Y-150749000D02*
X108839000Y-150749000D01*
X108839000Y-150749000D02*
X94488000Y-136398000D01*
%TO.N,TR*%
X143764000Y-103251000D02*
X138684000Y-103251000D01*
X150495000Y-103251000D02*
X143764000Y-103251000D01*
X154305000Y-107061000D02*
X150495000Y-103251000D01*
X138684000Y-103251000D02*
X136144000Y-100711000D01*
X129694000Y-97028000D02*
X133377000Y-100711000D01*
X133377000Y-100711000D02*
X136144000Y-100711000D01*
%TO.N,+5V*%
X133853000Y-112395000D02*
X132904300Y-113343700D01*
X133908335Y-118872000D02*
X140317000Y-118872000D01*
X132904300Y-117867965D02*
X133908335Y-118872000D01*
X132904300Y-113343700D02*
X132904300Y-117867965D01*
%TO.N,Net-(U1-DIS)*%
X146554000Y-109601000D02*
X146040000Y-110115000D01*
X154305000Y-109601000D02*
X146554000Y-109601000D01*
X154305000Y-112141000D02*
X155431000Y-111015000D01*
X149547405Y-100711000D02*
X143764000Y-100711000D01*
X154305000Y-112141000D02*
X154305000Y-109601000D01*
X155431000Y-111015000D02*
X155431000Y-106594595D01*
X155431000Y-106594595D02*
X149547405Y-100711000D01*
%TO.N,GND*%
X130932000Y-134874000D02*
X139018000Y-134874000D01*
X134620000Y-143129000D02*
X134620000Y-139272000D01*
X132837000Y-98171000D02*
X131694000Y-97028000D01*
X136144000Y-98171000D02*
X132837000Y-98171000D01*
X134620000Y-139272000D02*
X139018000Y-134874000D01*
X126233000Y-130175000D02*
X130932000Y-134874000D01*
%TO.N,OUT*%
X135043000Y-116285000D02*
X133853000Y-117475000D01*
X136144000Y-103251000D02*
X135043000Y-104352000D01*
X135043000Y-104352000D02*
X135043000Y-116285000D01*
%TO.N,Net-(D10-K)*%
X166497000Y-126746000D02*
X165100000Y-126746000D01*
X105029000Y-102362000D02*
X114681000Y-92710000D01*
X114681000Y-92710000D02*
X119380000Y-92710000D01*
X144526000Y-148493000D02*
X144526000Y-147320000D01*
X127000000Y-143129000D02*
X132364000Y-148493000D01*
X132364000Y-148493000D02*
X144526000Y-148493000D01*
X94488000Y-133477000D02*
X90551000Y-129540000D01*
X94488000Y-136398000D02*
X94488000Y-133477000D01*
X165100000Y-126746000D02*
X154686000Y-137160000D01*
X144526000Y-147320000D02*
X154686000Y-137160000D01*
%TO.N,Net-(D4-A)*%
X114930000Y-136398000D02*
X126233000Y-125095000D01*
X97028000Y-136398000D02*
X114930000Y-136398000D01*
%TO.N,Net-(D5-A)*%
X119248000Y-129540000D02*
X93091000Y-129540000D01*
X126233000Y-122555000D02*
X119248000Y-129540000D01*
%TO.N,Net-(D6-A)*%
X121920000Y-92710000D02*
X126233000Y-97023000D01*
X126233000Y-97023000D02*
X126233000Y-112395000D01*
%TO.N,Net-(D7-A)*%
X160321471Y-137160000D02*
X157226000Y-137160000D01*
X133460035Y-124146300D02*
X168135771Y-124146300D01*
X132904300Y-124702035D02*
X133460035Y-124146300D01*
X168135771Y-124146300D02*
X170238000Y-126248529D01*
X133853000Y-127635000D02*
X132904300Y-126686300D01*
X170238000Y-127243471D02*
X160321471Y-137160000D01*
X132904300Y-126686300D02*
X132904300Y-124702035D01*
X170238000Y-126248529D02*
X170238000Y-127243471D01*
%TO.N,Net-(D8-A)*%
X113792000Y-140076000D02*
X126233000Y-127635000D01*
X113792000Y-150749000D02*
X113792000Y-140076000D01*
%TO.N,Net-(D9-A)*%
X91948000Y-122174000D02*
X124074000Y-122174000D01*
X124074000Y-122174000D02*
X126233000Y-120015000D01*
%TD*%
M02*
