M48
; DRILL file KiCad 10.0.2 date 2026-06-01T21:41:11
; FORMAT={-:-/ absolute / metric / decimal}
; #@! TF.CreationDate,2026-06-01T21:41:11-04:00
; #@! TF.GenerationSoftware,Kicad,Pcbnew,10.0.2
; #@! TF.FileFunction,Plated,1,2,PTH
FMAT,2
METRIC
; #@! TA.AperFunction,Plated,PTH,ComponentDrill
T1C0.787
; #@! TA.AperFunction,Plated,PTH,ComponentDrill
T2C0.800
; #@! TA.AperFunction,Plated,PTH,ComponentDrill
T3C0.850
; #@! TA.AperFunction,Plated,PTH,ComponentDrill
T4C0.900
; #@! TA.AperFunction,Plated,PTH,ComponentDrill
T5C1.000
%
G90
G05
T1
X126.233Y-112.395
X126.233Y-114.935
X126.233Y-117.475
X126.233Y-120.015
X126.233Y-122.555
X126.233Y-125.095
X126.233Y-127.635
X126.233Y-130.175
X133.853Y-112.395
X133.853Y-114.935
X133.853Y-117.475
X133.853Y-120.015
X133.853Y-122.555
X133.853Y-125.095
X133.853Y-127.635
X133.853Y-130.175
T2
X127.0Y-143.129
X129.694Y-97.028
X131.694Y-97.028
X134.62Y-143.129
X136.144Y-97.79
X136.144Y-100.33
X136.144Y-102.87
X136.144Y-105.41
X138.42Y-110.115
X143.764Y-97.79
X143.764Y-100.33
X143.764Y-102.87
X143.764Y-105.41
X146.04Y-110.115
T3
X154.305Y-107.061
X154.305Y-109.601
X154.305Y-112.141
T4
X89.408Y-122.174
X90.551Y-129.54
X91.948Y-122.174
X93.091Y-129.54
X94.488Y-136.398
X96.012Y-113.665
X97.028Y-136.398
X98.552Y-113.665
X105.029Y-106.045
X107.569Y-106.045
X111.252Y-150.749
X113.792Y-150.749
X119.38Y-92.71
X121.92Y-92.71
X144.526Y-148.493
X147.066Y-148.493
X154.686Y-137.16
X157.226Y-137.16
X166.497Y-126.746
X169.037Y-126.746
T5
X139.018Y-134.874
X140.317Y-118.872
X140.317Y-121.412
X144.018Y-134.874
X144.907Y-118.872
X144.907Y-121.412
M30
