%TF.GenerationSoftware,KiCad,Pcbnew,10.0.2*%
%TF.CreationDate,2026-06-01T21:40:57-04:00*%
%TF.ProjectId,BlinkyBoard,426c696e-6b79-4426-9f61-72642e6b6963,rev?*%
%TF.SameCoordinates,Original*%
%TF.FileFunction,Soldermask,Top*%
%TF.FilePolarity,Negative*%
%FSLAX46Y46*%
G04 Gerber Fmt 4.6, Leading zero omitted, Abs format (unit mm)*
G04 Created by KiCad (PCBNEW 10.0.2) date 2026-06-01 21:40:57*
%MOMM*%
%LPD*%
G01*
G04 APERTURE LIST*
G04 Aperture macros list*
%AMRoundRect*
0 Rectangle with rounded corners*
0 $1 Rounding radius*
0 $2 $3 $4 $5 $6 $7 $8 $9 X,Y pos of 4 corners*
0 Add a 4 corners polygon primitive as box body*
4,1,4,$2,$3,$4,$5,$6,$7,$8,$9,$2,$3,0*
0 Add four circle primitives for the rounded corners*
1,1,$1+$1,$2,$3*
1,1,$1+$1,$4,$5*
1,1,$1+$1,$6,$7*
1,1,$1+$1,$8,$9*
0 Add four rect primitives between the rounded corners*
20,1,$1+$1,$2,$3,$4,$5,0*
20,1,$1+$1,$4,$5,$6,$7,0*
20,1,$1+$1,$6,$7,$8,$9,0*
20,1,$1+$1,$8,$9,$2,$3,0*%
G04 Aperture macros list end*
%ADD10R,1.800000X1.800000*%
%ADD11C,1.800000*%
%ADD12R,1.700000X1.700000*%
%ADD13C,1.700000*%
%ADD14RoundRect,0.250000X-0.550000X-0.550000X0.550000X-0.550000X0.550000X0.550000X-0.550000X0.550000X0*%
%ADD15C,1.600000*%
%ADD16RoundRect,0.412500X0.412500X-0.412500X0.412500X0.412500X-0.412500X0.412500X-0.412500X-0.412500X0*%
%ADD17C,1.650000*%
%ADD18C,2.000000*%
%ADD19R,1.295400X1.295400*%
%ADD20C,1.295400*%
G04 APERTURE END LIST*
D10*
%TO.C,D8*%
X111252000Y-150749000D03*
D11*
X113792000Y-150749000D03*
%TD*%
D10*
%TO.C,D6*%
X119380000Y-92710000D03*
D11*
X121920000Y-92710000D03*
%TD*%
D12*
%TO.C,J2*%
X144907000Y-118872000D03*
D13*
X144907000Y-121412000D03*
%TD*%
D10*
%TO.C,D11*%
X96012000Y-113665000D03*
D11*
X98552000Y-113665000D03*
%TD*%
D10*
%TO.C,D9*%
X89408000Y-122174000D03*
D11*
X91948000Y-122174000D03*
%TD*%
D10*
%TO.C,D4*%
X94488000Y-136398000D03*
D11*
X97028000Y-136398000D03*
%TD*%
D10*
%TO.C,D3*%
X144526000Y-148493000D03*
D11*
X147066000Y-148493000D03*
%TD*%
D10*
%TO.C,D5*%
X90551000Y-129540000D03*
D11*
X93091000Y-129540000D03*
%TD*%
D10*
%TO.C,D2*%
X166497000Y-126746000D03*
D11*
X169037000Y-126746000D03*
%TD*%
D10*
%TO.C,D10*%
X105029000Y-106045000D03*
D11*
X107569000Y-106045000D03*
%TD*%
D10*
%TO.C,D7*%
X154686000Y-137160000D03*
D11*
X157226000Y-137160000D03*
%TD*%
D12*
%TO.C,J1*%
X140317000Y-118872000D03*
D13*
X140317000Y-121412000D03*
%TD*%
D14*
%TO.C,C1*%
X129694000Y-97028000D03*
D15*
X131694000Y-97028000D03*
%TD*%
%TO.C,R2*%
X127000000Y-143129000D03*
X134620000Y-143129000D03*
%TD*%
D14*
%TO.C,U1*%
X136144000Y-97790000D03*
D15*
X136144000Y-100330000D03*
X136144000Y-102870000D03*
X136144000Y-105410000D03*
X143764000Y-105410000D03*
X143764000Y-102870000D03*
X143764000Y-100330000D03*
X143764000Y-97790000D03*
%TD*%
D16*
%TO.C,RV1*%
X154305000Y-112141000D03*
D17*
X154305000Y-109601000D03*
X154305000Y-107061000D03*
%TD*%
D15*
%TO.C,R1*%
X138420000Y-110115000D03*
X146040000Y-110115000D03*
%TD*%
D18*
%TO.C,C2*%
X139018000Y-134874000D03*
X144018000Y-134874000D03*
%TD*%
D19*
%TO.C,U2*%
X126233000Y-112395000D03*
D20*
X126233000Y-114935000D03*
X126233000Y-117475000D03*
X126233000Y-120015000D03*
X126233000Y-122555000D03*
X126233000Y-125095000D03*
X126233000Y-127635000D03*
X126233000Y-130175000D03*
X133853000Y-130175000D03*
X133853000Y-127635000D03*
X133853000Y-125095000D03*
X133853000Y-122555000D03*
X133853000Y-120015000D03*
X133853000Y-117475000D03*
X133853000Y-114935000D03*
X133853000Y-112395000D03*
%TD*%
M02*
